<svg fill="#000000" xmlns="http://www.w3.org/2000/svg"  viewBox="0 0 50 50" width="48px" height="48px"><path d="M23.705 34.153c-.841-.229-1.79-.237-2.27.45l-1.561 1.831c-5.405 6.066-5.645 6.41-5.765 6.753-.12.229-.12.458-.12.687.12.343.24.572.48.916 1.321 1.374 7.156 3.517 9.077 3.174.601-.115 1.081-.458 1.321-1.03.12-.343.12-.572.12-7.783 0 0 0-3.205 0-3.319C24.988 34.827 24.546 34.496 23.705 34.153zM19.545 31.722c.841-.229 1.43-.803 1.43-1.718s-.448-1.673-1.289-2.016l-2.282-.916c-7.807-3.09-7.654-3.101-8.015-3.101-.48 0-1.081.229-1.441.801-.841 1.145-1.102 4.797-.862 7.315.12.801.24 1.456.48 1.914.36.572.841.916 1.441.916.36 0 .088-.104 7.294-2.164L19.545 31.722zM20.976 21.981c1.441 2.289 2.193 2.033 2.553 1.919.36-.114 1.563-.545 1.323-3.292-.12-3.09-1.081-16.711-1.201-17.398-.24-.572-.601-1.03-1.321-1.145-2.042-.458-9.401 1.603-10.842 3.091-.48.458-.601 1.145-.48 1.602C11.247 7.216 20.976 21.981 20.976 21.981zM34.799 33.113l-3.078-.978c-.841-.229-1.692-.163-2.281.475-.389.422-.683 1.619-.202 2.306l1.321 1.946c4.324 6.639 4.345 6.98 4.706 7.209.48.458 1.081.458 1.682.229 1.922-.687 5.681-5.238 5.921-7.069.12-.572-.12-1.145-.601-1.717C42.027 35.286 41.527 35.204 34.799 33.113zM37.527 16.156c-.6-.229-1.2-.229-1.68.114-.75.738-.483.215-4.803 5.933l-2.04 2.63c-.48.572-.367 1.527.113 2.213.48.686 1.132 1.05 2.047.874l0 0c.36-.114 1.08-.229 2.4-.572 8.28-1.83 8.355-1.815 8.715-2.043.48-.343.72-.801.72-1.487 0-.114 0-.114 0-.114C42.759 21.876 39.207 16.957 37.527 16.156z"/></svg>